<svg xmlns="http://www.w3.org/2000/svg" width="1100" height="260" viewBox="0 0 1100 260" role="img" aria-labelledby="title desc"><title id="title">Engineering workflow</title><desc id="desc">Flow from data and AI models through APIs and cloud deployment to monitoring.</desc><defs><linearGradient id="bg" x1="0" y1="0" x2="1" y2="0"><stop stop-color="#0f172a"/><stop offset="1" stop-color="#0b1f2a"/></linearGradient><linearGradient id="a" x1="0" y1="0" x2="1" y2="1"><stop stop-color="#38bdf8"/><stop offset="1" stop-color="#22d3ee"/></linearGradient></defs><rect width="1100" height="260" rx="20" fill="url(#bg)"/><g font-family="Inter,Segoe UI,Arial,sans-serif" text-anchor="middle"><g fill="#e2e8f0" font-size="18" font-weight="700"><text x="125" y="112">DATA</text><text x="345" y="112">AI / ML</text><text x="565" y="112">API</text><text x="785" y="112">CLOUD</text><text x="975" y="112">OBSERVABILITY</text></g><g fill="#94a3b8" font-size="13"><text x="125" y="138">SQL · ETL · Analytics</text><text x="345" y="138">Python · Models · SHAP</text><text x="565" y="138">Flask · REST · Go</text><text x="785" y="138">AWS · Docker · Terraform</text><text x="975" y="138">Metrics · Monitoring</text></g><g stroke="url(#a)" stroke-width="3" fill="none"><path d="M190 125H275"/><path d="M410 125H495"/><path d="M630 125H715"/><path d="M850 125H900"/></g><g fill="#67e8f9"><circle cx="125" cy="72" r="7"/><circle cx="345" cy="72" r="7"/><circle cx="565" cy="72" r="7"/><circle cx="785" cy="72" r="7"/><circle cx="975" cy="72" r="7"/></g><text x="550" y="215" fill="#64748b" font-size="13">practical engineering • reproducible builds • measurable results</text></g></svg>