<svg xmlns="http://www.w3.org/2000/svg" width="1280" height="360" viewBox="0 0 1280 360" role="img" aria-labelledby="title desc"><title id="title">AI, Cloud and Data Engineering banner</title><desc id="desc">Abstract dark technology banner representing AI, cloud infrastructure, data and backend engineering.</desc><defs><linearGradient id="bg" x1="0" y1="0" x2="1" y2="1"><stop offset="0" stop-color="#0b1020"/><stop offset="0.55" stop-color="#111827"/><stop offset="1" stop-color="#06151f"/></linearGradient><linearGradient id="line" x1="0" y1="0" x2="1" y2="1"><stop offset="0" stop-color="#60a5fa"/><stop offset="1" stop-color="#22d3ee"/></linearGradient><filter id="glow"><feGaussianBlur stdDeviation="5" result="b"/><feMerge><feMergeNode in="b"/><feMergeNode in="SourceGraphic"/></feMerge></filter></defs><rect width="1280" height="360" rx="22" fill="url(#bg)"/><g opacity="0.16" stroke="#94a3b8" stroke-width="1"><path d="M0 70H1280M0 140H1280M0 210H1280M0 280H1280"/><path d="M120 0V360M240 0V360M360 0V360M480 0V360M600 0V360M720 0V360M840 0V360M960 0V360M1080 0V360M1200 0V360"/></g><g fill="none" stroke="url(#line)" stroke-width="2" opacity="0.8" filter="url(#glow)"><path d="M70 250L190 150L300 205L420 90L540 170L670 70L790 145L910 95L1040 190L1210 80"/><path d="M110 300L220 260L330 285L460 215L590 260L720 205L860 255L990 220L1140 275"/></g><g fill="#67e8f9"><circle cx="190" cy="150" r="5"/><circle cx="420" cy="90" r="5"/><circle cx="670" cy="70" r="5"/><circle cx="910" cy="95" r="5"/><circle cx="1040" cy="190" r="5"/></g><g fill="#e2e8f0" font-family="Inter,Segoe UI,Arial,sans-serif"><text x="70" y="82" font-size="18" letter-spacing="4" fill="#67e8f9">ENGINEERING • AI • CLOUD • DATA</text><text x="70" y="145" font-size="44" font-weight="700">Vemula Syam Prakash</text><text x="70" y="184" font-size="22" fill="#cbd5e1">AI/ML Engineer · Python Developer · AWS · Backend Systems</text><text x="70" y="325" font-size="15" fill="#94a3b8">Building practical systems with measurable engineering value.</text></g><g transform="translate(1080 42)" fill="none" stroke="#67e8f9" opacity="0.8"><circle cx="60" cy="60" r="42"/><circle cx="60" cy="60" r="18"/><path d="M60 18V0M60 120V102M18 60H0M120 60H102M30 30L17 17M90 90L103 103M90 30L103 17M30 90L17 103" stroke-width="3"/></g></svg>